<svg id="crystalandflame" xmlns="http://www.w3.org/2000/svg" viewBox="0 0 32 32">
  <defs>
    <style>
      .cls-1 {
        fill: #ead19c;
      }
    </style>
  </defs>
  <rect width="32" height="32"/>
  <path class="cls-1" d="M24.18,15.79c-.6-.03-1.19-.09-1.79-.11-1.17-.04-2.28.09-3.05,1.2.06-1.62.12-3.23.18-4.87,2.03.03,3.99-.18,5.87.76-.06-1.04-.11-2-.16-2.94-3.42.28-6.8.16-10.19.17.7.43,1.1,1.05,1.21,1.85.1.77.2,1.55.21,2.33.03,1.65.03,3.3.04,4.95-.72.15-1.47.17-2.24.07-2.12-.26-3.83-1.19-4.93-3.08-.76-1.3-.98-2.74-.91-4.21.11-2.31,1.17-4.04,3.24-5.1,1.33-.68,2.76-.8,4.22-.7,1.49.11,2.66.75,3.47,2.02.02.04.07.06.13.11-.09-1.31-.18-2.57-.27-3.87-.7-.1-1.36-.19-2.03-.29-1.75-.26-3.5-.26-5.21.24-2.37.68-4.27,1.99-5.45,4.22-.82,1.56-1.02,3.24-.92,4.98.2,3.41,2.36,6.26,5.6,7.34,1.75.58,3.52.63,5.31.35,0,.16,0,.32,0,.49,0,1.41-.1,2.82-.19,4.23-.06.95-.34,1.81-1.25,2.32-.02.01-.02.05-.02.08h5.78c-.64-.41-1.05-.95-1.18-1.69-.06-.36-.14-.73-.15-1.09-.06-2.05-.11-4.11-.15-6.16,0-.18,0-.37.06-.54.21-.76.82-1.05,1.51-1.09.84-.06,1.7-.03,2.54.03,1.55.11,1.97-.11,2.63-1.53.1-.21.18-.42.26-.64.03-.08.04-.16.08-.31-.73.48-1.48.53-2.24.5Z"/>
</svg>